<?xml version="1.0" encoding="utf-8"?>
<!-- Generator: Adobe Illustrator 19.1.0, SVG Export Plug-In . SVG Version: 6.00 Build 0)  -->
<!DOCTYPE svg PUBLIC "-//W3C//DTD SVG 1.1//EN" "http://www.w3.org/Graphics/SVG/1.1/DTD/svg11.dtd">
<svg version="1.1" id="Layer_1" xmlns="http://www.w3.org/2000/svg" xmlns:xlink="http://www.w3.org/1999/xlink" x="0px" y="0px"
	 viewBox="0 0 282.1 98.5" style="enable-background:new 0 0 282.1 98.5;" xml:space="preserve">
<style type="text/css">
	.st0{fill:#313438;}
</style>
<g>
	<polygon class="st0" points="139.9,0 153.2,0 153.2,11.7 	"/>
	<polygon class="st0" points="139.9,81.8 153.2,81.8 153.2,26.8 139.9,15 	"/>
	<path class="st0" d="M24.8,45.7c-1.6-0.5-3.2-1-4.8-1.6c-2.3-0.9-4.6-1.7-4.6-4.6c0-2.8,2.3-4.8,5.1-4.8c3,0,4.7,1.9,5.3,4.8h13
		c-0.4-9.7-8.4-17.1-18.2-17.1C10.9,22.4,2,29.5,2,39.6c0,8.2,5,13.3,12.4,16c2.8,1,9.9,2.9,11.7,5.4c0.6,0.9,0.8,1.9,0.8,2.9
		c0,3.4-2.8,5.6-6,5.6c-4.6,0-6.4-3.1-7.3-7.1H0c0.4,4.6,1.3,8.3,4.2,12c3.9,4.9,10.4,7.3,16.7,7.3c11,0,19.5-8.4,19.5-19.5
		C40.3,52,33.4,48.4,24.8,45.7z"/>
	<g>
		<g>
			<path class="st0" d="M77.5,22.4c-7.3,0-13.4,2.6-18.1,8.4h-0.2v-6.5H47v74.3h13.3V74.7c5.2,5,9.7,7.1,17.2,7.1
				c16.4,0,27.9-14.1,27.9-29.9C105.4,36,93.8,22.4,77.5,22.4z M75.8,69.5c-2.3,0-4.5-0.6-6.5-1.6c-6.4-2.9-9.7-8.9-9.7-15.9
				c0-9.3,6.8-17.5,16.5-17.5c9.4,0,16.1,8.5,16.1,17.5C92,61.1,85.2,69.5,75.8,69.5z"/>
		</g>
	</g>
	<rect x="113.9" y="0" class="st0" width="13.3" height="81.8"/>
	<path class="st0" d="M192.2,34.6c6.2,0,10,2.9,12.9,8.1h15.1c-4.1-12.3-15-20.4-28-20.4c-16.3,0-29.5,13.2-29.5,29.5
		c0,16.4,13.1,29.9,29.6,29.9c13.1,0,23.5-7.7,27.9-20h-15.1c-2.8,4.5-6.9,7.7-12.3,7.7c-9.9,0-16.8-7.8-16.8-17.5
		C176,42.5,182.2,34.6,192.2,34.6z"/>
	<g>
		<g>
			<path class="st0" d="M282.1,51.4c0-16.2-12.5-29-28.8-29c-16.9,0-29.3,13.2-29.3,29.9c0,16.6,12.7,29.5,29.4,29.5
				c11.8,0,23.3-8,26.9-19.4h-14.1c-2.7,4.9-7.4,7.1-12.8,7.1c-5.5,0-10.5-2.8-13.6-7.4c-0.8-1.2-1.5-2.5-1.8-4h43.2
				C281.8,55.9,282.1,53.6,282.1,51.4z M237.7,47.4c1.9-7.9,7.6-12.7,15.8-12.7c8.1,0,13.7,4.7,15,12.7H237.7z"/>
		</g>
	</g>
</g>
<g>
</g>
<g>
</g>
<g>
</g>
<g>
</g>
<g>
</g>
<g>
</g>
<g>
</g>
<g>
</g>
<g>
</g>
<g>
</g>
<g>
</g>
<g>
</g>
<g>
</g>
<g>
</g>
<g>
</g>
</svg>
